<svg width="60" height="52" viewBox="0 0 60 52" fill="none" xmlns="http://www.w3.org/2000/svg">
<rect width="60" height="52" rx="26" fill="#10B981"/>
<path d="M27.6589 17.8354C27.3886 17.8349 27.1266 17.9296 26.9185 18.1031C26.8014 18.2009 26.7045 18.3209 26.6336 18.4563C26.5626 18.5918 26.5189 18.7399 26.5049 18.8924C26.4909 19.0449 26.507 19.1986 26.5521 19.3448C26.5973 19.4911 26.6707 19.6269 26.7681 19.7445L31.9509 25.984L26.9532 32.2351C26.8571 32.3542 26.7854 32.4912 26.7421 32.6383C26.6988 32.7854 26.6848 32.9396 26.7009 33.0921C26.717 33.2446 26.7629 33.3925 26.836 33.5271C26.9091 33.6617 27.0079 33.7804 27.1267 33.8765C27.2464 33.9825 27.3866 34.0624 27.5385 34.1113C27.6903 34.1602 27.8506 34.1769 28.0092 34.1605C28.1678 34.1441 28.3213 34.0949 28.4601 34.016C28.5989 33.9371 28.72 33.8301 28.8158 33.7019L34.4035 26.7174C34.5736 26.5091 34.6667 26.2478 34.6667 25.9782C34.6667 25.7085 34.5736 25.4473 34.4035 25.239L28.6191 18.2545C28.5031 18.1136 28.3556 18.0022 28.1888 17.9294C28.022 17.8566 27.8404 17.8244 27.6589 17.8354Z" fill="white"/>
</svg>
