<svg width="60" height="52" viewBox="0 0 60 52" fill="none" xmlns="http://www.w3.org/2000/svg">
<rect width="60" height="52" rx="26" fill="#E0E3EB"/>
<path d="M33.5077 34.1646C33.7781 34.1651 34.04 34.0704 34.2481 33.8969C34.3653 33.7991 34.4621 33.6791 34.5331 33.5437C34.6041 33.4082 34.6478 33.2601 34.6618 33.1076C34.6757 32.9551 34.6597 32.8014 34.6145 32.6552C34.5693 32.5089 34.496 32.3731 34.3985 32.2555L29.2157 26.016L34.2134 19.7649C34.3095 19.6458 34.3813 19.5088 34.4246 19.3617C34.4679 19.2146 34.4819 19.0604 34.4658 18.9079C34.4496 18.7554 34.4037 18.6075 34.3306 18.4729C34.2576 18.3383 34.1587 18.2196 34.0399 18.1235C33.9202 18.0175 33.78 17.9376 33.6282 17.8887C33.4763 17.8398 33.3161 17.8231 33.1575 17.8395C32.9989 17.8559 32.8454 17.9051 32.7065 17.984C32.5677 18.0629 32.4467 18.1699 32.3509 18.2981L26.7632 25.2826C26.593 25.4909 26.5 25.7522 26.5 26.0218C26.5 26.2915 26.593 26.5527 26.7632 26.761L32.5475 33.7455C32.6636 33.8864 32.811 33.9978 32.9779 34.0706C33.1447 34.1434 33.3262 34.1756 33.5077 34.1646Z" fill="#3C4563"/>
</svg>
